<svg xmlns="http://www.w3.org/2000/svg" viewBox="0 0 720 620" font-family="monospace" font-size="12">
  <style>
    text          { fill: #e0e0e0; }
    text.title    { font-size: 16px; font-weight: bold; }
    text.subtitle { font-size: 12px; fill: #909090; }
    text.nlabel   { font-size: 13px; font-weight: bold; }
    text.nrole    { font-size: 10px; fill: #909090; }
    text.plabel   { font-size: 13px; font-weight: bold; fill: #909090; }
    text.alabel   { font-size: 11px; }
    text.annot    { font-size: 10px; fill: #909090; font-style: italic; }
    text.caption  { font-size: 11px; fill: #707080; font-style: italic; }
    line.sep      { stroke: #303040; stroke-width: 1; stroke-dasharray: 6,4; }
    line.life     { stroke: #303040; stroke-width: 1; stroke-dasharray: 2,3; }
  </style>

  <defs>
    <marker id="btR" markerWidth="7" markerHeight="5" refX="7" refY="2.5" orient="auto">
      <polygon points="0,0 7,2.5 0,5" fill="#5080c0"/>
    </marker>
    <marker id="btG" markerWidth="7" markerHeight="5" refX="7" refY="2.5" orient="auto">
      <polygon points="0,0 7,2.5 0,5" fill="#40a060"/>
    </marker>
    <marker id="btRed" markerWidth="7" markerHeight="5" refX="7" refY="2.5" orient="auto">
      <polygon points="0,0 7,2.5 0,5" fill="#c05050"/>
    </marker>
    <marker id="btCyan" markerWidth="7" markerHeight="5" refX="7" refY="2.5" orient="auto">
      <polygon points="0,0 7,2.5 0,5" fill="#50a0c0"/>
    </marker>
    <marker id="btGray" markerWidth="7" markerHeight="5" refX="7" refY="2.5" orient="auto">
      <polygon points="0,0 7,2.5 0,5" fill="#909090"/>
    </marker>
  </defs>

  <!-- Background -->
  <rect width="720" height="620" fill="#0d1117" rx="8"/>

  <!-- Title -->
  <text x="360" y="28" text-anchor="middle" class="title">Bootstrap Token Lifecycle</text>
  <text x="360" y="46" text-anchor="middle" class="subtitle">Verify, meter, top-up, exhaust</text>

  <!-- Node headers -->
  <rect x="65" y="62" width="100" height="42" fill="#2e3a5e" stroke="#50a0c0" stroke-width="2" rx="6"/>
  <text x="115" y="82" text-anchor="middle" class="nlabel">Peer B</text>
  <text x="115" y="95" text-anchor="middle" class="nrole">Connecting</text>

  <rect x="295" y="62" width="100" height="42" fill="#2e3a5e" stroke="#5080c0" stroke-width="2" rx="6"/>
  <text x="345" y="82" text-anchor="middle" class="nlabel">Node A</text>
  <text x="345" y="95" text-anchor="middle" class="nrole">Provider</text>

  <rect x="535" y="62" width="100" height="42" fill="#151520" stroke="#404060" stroke-width="1.5" rx="6"/>
  <text x="585" y="82" text-anchor="middle" class="nlabel" fill="#909090">Mint</text>
  <text x="585" y="95" text-anchor="middle" class="nrole">Cashu</text>

  <!-- Lifelines -->
  <line x1="115" y1="104" x2="115" y2="590" class="life"/>
  <line x1="345" y1="104" x2="345" y2="590" class="life"/>
  <line x1="585" y1="104" x2="585" y2="250" class="life"/>

  <!-- ═══ Phase 1: Verify ═══ -->
  <text x="40" y="128" text-anchor="middle" class="plabel">1</text>
  <text x="40" y="144" text-anchor="middle" class="annot">Verify</text>

  <line x1="125" y1="132" x2="333" y2="132" stroke="#50a0c0" stroke-width="1.5" marker-end="url(#btCyan)"/>
  <text x="230" y="125" text-anchor="middle" class="alabel" fill="#50a0c0">BootstrapToken (100 sats)</text>

  <line x1="355" y1="158" x2="573" y2="158" stroke="#909090" stroke-width="1" stroke-dasharray="4,3" marker-end="url(#btGray)"/>
  <text x="465" y="151" text-anchor="middle" class="annot">verify / redeem</text>

  <line x1="575" y1="182" x2="357" y2="182" stroke="#40a060" stroke-width="1" stroke-dasharray="4,3" marker-end="url(#btG)"/>
  <text x="465" y="198" text-anchor="middle" class="annot" fill="#40a060">valid</text>

  <line x1="335" y1="210" x2="127" y2="210" stroke="#40a060" stroke-width="1.5" marker-end="url(#btG)"/>
  <text x="230" y="203" text-anchor="middle" class="alabel" fill="#40a060">BootstrapAck (accepted)</text>

  <rect x="295" y="224" width="130" height="18" rx="3" fill="#151520" stroke="#40a060" stroke-width="1"/>
  <text x="360" y="237" text-anchor="middle" class="annot" fill="#40a060">balance: 100 sats</text>

  <line x1="60" y1="255" x2="650" y2="255" class="sep"/>

  <!-- ═══ Phase 2: Metering ═══ -->
  <text x="40" y="278" text-anchor="middle" class="plabel">2</text>
  <text x="40" y="294" text-anchor="middle" class="annot">Meter</text>

  <rect x="95" y="265" width="290" height="100" rx="4" fill="none" stroke="#303040" stroke-width="1" stroke-dasharray="4,3"/>
  <text x="380" y="278" text-anchor="start" class="annot">every 5s</text>

  <line x1="335" y1="290" x2="127" y2="290" stroke="#5080c0" stroke-width="1.5" marker-end="url(#btR)"/>
  <text x="230" y="283" text-anchor="middle" class="alabel" fill="#5080c0">MeteringReport</text>
  <text x="230" y="307" text-anchor="middle" class="annot">remaining balance, units used</text>

  <text x="230" y="335" text-anchor="middle" class="annot">delivery active, balance decreases...</text>

  <rect x="295" y="345" width="130" height="18" rx="3" fill="#151520" stroke="#d0a040" stroke-width="1"/>
  <text x="360" y="358" text-anchor="middle" class="annot" fill="#d0a040">balance: 12 sats</text>

  <line x1="60" y1="378" x2="650" y2="378" class="sep"/>

  <!-- ═══ Phase 3: Top-up (before exhaustion) ═══ -->
  <text x="40" y="401" text-anchor="middle" class="plabel">3</text>
  <text x="40" y="417" text-anchor="middle" class="annot">Top-up</text>

  <line x1="125" y1="405" x2="333" y2="405" stroke="#50a0c0" stroke-width="1.5" marker-end="url(#btCyan)"/>
  <text x="230" y="398" text-anchor="middle" class="alabel" fill="#50a0c0">BootstrapToken (50 sats)</text>

  <line x1="335" y1="432" x2="127" y2="432" stroke="#40a060" stroke-width="1.5" marker-end="url(#btG)"/>
  <text x="230" y="425" text-anchor="middle" class="alabel" fill="#40a060">BootstrapAck (accepted)</text>

  <rect x="295" y="446" width="130" height="18" rx="3" fill="#151520" stroke="#40a060" stroke-width="1"/>
  <text x="360" y="459" text-anchor="middle" class="annot" fill="#40a060">balance: 62 sats</text>
  <text x="440" y="459" text-anchor="start" class="annot">additive</text>

  <line x1="60" y1="478" x2="650" y2="478" class="sep"/>

  <!-- ═══ Phase 4: Exhaustion ═══ -->
  <text x="40" y="501" text-anchor="middle" class="plabel">4</text>
  <text x="40" y="517" text-anchor="middle" class="annot">Exhaust</text>

  <rect x="295" y="492" width="130" height="18" rx="3" fill="#151520" stroke="#c05050" stroke-width="1"/>
  <text x="360" y="505" text-anchor="middle" class="annot" fill="#c05050">balance: 0</text>

  <line x1="335" y1="528" x2="127" y2="528" stroke="#c05050" stroke-width="1.5" marker-end="url(#btRed)"/>
  <text x="230" y="521" text-anchor="middle" class="alabel" fill="#c05050">Reject (balance exhausted)</text>
  <text x="230" y="545" text-anchor="middle" class="annot">delivery stops — peer must top up or upgrade to Spilman</text>

  <!-- Caption -->
  <text x="360" y="585" text-anchor="middle" class="caption">Smart peers top up before exhaustion (phase 3) to avoid service interruption</text>
</svg>
