<svg xmlns="http://www.w3.org/2000/svg" viewBox="0 0 800 520" font-family="monospace" font-size="12">
  <style>
    text          { fill: #e0e0e0; }
    text.title    { font-size: 16px; font-weight: bold; }
    text.subtitle { font-size: 12px; fill: #909090; }
    text.slabel   { font-size: 14px; font-weight: bold; }
    text.sdesc    { font-size: 10px; }
    text.elabel   { font-size: 9px; fill: #b0b0b0; }
    text.caption  { font-size: 11px; fill: #707080; font-style: italic; }
  </style>

  <defs>
    <marker id="ag" markerWidth="7" markerHeight="5" refX="7" refY="2.5" orient="auto">
      <polygon points="0,0 7,2.5 0,5" fill="#50c050"/>
    </marker>
    <marker id="ab" markerWidth="7" markerHeight="5" refX="7" refY="2.5" orient="auto">
      <polygon points="0,0 7,2.5 0,5" fill="#50a0c0"/>
    </marker>
    <marker id="ared" markerWidth="7" markerHeight="5" refX="7" refY="2.5" orient="auto">
      <polygon points="0,0 7,2.5 0,5" fill="#c05050"/>
    </marker>
  </defs>

  <!-- Background -->
  <rect width="800" height="520" fill="#0d1117" rx="8"/>

  <!-- Title -->
  <text x="400" y="28" text-anchor="middle" class="title">Access Level State Machine</text>
  <text x="400" y="46" text-anchor="middle" class="subtitle">Per-peer payment status determines forwarding access</text>

  <!-- ═══ NONE — center top ═══ -->
  <rect x="310" y="75" width="180" height="55" rx="8" fill="#2e1a1a" stroke="#c05050" stroke-width="2"/>
  <text x="400" y="100" text-anchor="middle" class="slabel" fill="#f08080">None</text>
  <text x="400" y="118" text-anchor="middle" class="sdesc" fill="#909090">blocked, hidden (FIPS)</text>

  <!-- ═══ BOOTSTRAP — left middle ═══ -->
  <rect x="60" y="210" width="180" height="55" rx="8" fill="#1a2e2e" stroke="#50a0c0" stroke-width="2"/>
  <text x="150" y="235" text-anchor="middle" class="slabel" fill="#80c0e0">Bootstrap</text>
  <text x="150" y="253" text-anchor="middle" class="sdesc" fill="#909090">metered, visible</text>

  <!-- ═══ ACTIVE — center middle ═══ -->
  <rect x="310" y="210" width="180" height="55" rx="8" fill="#1a2e1a" stroke="#50c050" stroke-width="2"/>
  <text x="400" y="235" text-anchor="middle" class="slabel" fill="#80e080">Active</text>
  <text x="400" y="253" text-anchor="middle" class="sdesc" fill="#909090">metered, visible</text>

  <!-- ═══ ZEROPRICE — right middle ═══ -->
  <rect x="560" y="210" width="180" height="55" rx="8" fill="#1a2e1a" stroke="#50c050" stroke-width="2"/>
  <text x="650" y="235" text-anchor="middle" class="slabel" fill="#80e080">ZeroPrice</text>
  <text x="650" y="253" text-anchor="middle" class="sdesc" fill="#909090">unmetered, visible</text>

  <!-- ═══ SUSPENDED — center bottom ═══ -->
  <rect x="310" y="365" width="180" height="55" rx="8" fill="#2e1a1a" stroke="#c05050" stroke-width="2"/>
  <text x="400" y="390" text-anchor="middle" class="slabel" fill="#f08080">Suspended</text>
  <text x="400" y="408" text-anchor="middle" class="sdesc" fill="#909090">blocked, hidden (FIPS)</text>

  <!-- ═══ TRANSITIONS ═══ -->

  <!-- None → Bootstrap (down-left) -->
  <line x1="330" y1="130" x2="200" y2="210" stroke="#50a0c0" stroke-width="1.5" marker-end="url(#ab)"/>
  <text x="240" y="163" text-anchor="middle" class="elabel">token verified</text>

  <!-- None → Active (straight down) -->
  <line x1="400" y1="130" x2="400" y2="203" stroke="#50c050" stroke-width="1.5" marker-end="url(#ag)"/>
  <text x="435" y="170" text-anchor="start" class="elabel">channels funded</text>

  <!-- None → ZeroPrice (down-right) -->
  <line x1="470" y1="130" x2="600" y2="210" stroke="#50c050" stroke-width="1.5" stroke-dasharray="6,3" marker-end="url(#ag)"/>
  <text x="560" y="163" text-anchor="middle" class="elabel">zero-price</text>

  <!-- Bootstrap → Active (right) -->
  <line x1="240" y1="232" x2="303" y2="232" stroke="#50c050" stroke-width="1.5" marker-end="url(#ag)"/>
  <text x="272" y="225" text-anchor="middle" class="elabel">upgrade</text>

  <!-- Bootstrap → Suspended: straight down from bottom of Bootstrap, then right -->
  <path d="M 150,265 L 150,390 L 303,390" fill="none" stroke="#c05050" stroke-width="1.5" marker-end="url(#ared)"/>
  <text x="160" y="340" text-anchor="start" class="elabel">balance = 0</text>

  <!-- Active → Suspended (straight down, left side) -->
  <line x1="380" y1="265" x2="380" y2="358" stroke="#c05050" stroke-width="1.5" marker-end="url(#ared)"/>
  <text x="345" y="318" text-anchor="end" class="elabel">exhausted</text>
  <text x="345" y="330" text-anchor="end" class="elabel">+ timeout</text>

  <!-- Suspended → Bootstrap: left from Suspended, then up to Bootstrap left side -->
  <path d="M 310,400 L 100,400 L 100,265" fill="none" stroke="#50a0c0" stroke-width="1.5" stroke-dasharray="6,3" marker-end="url(#ab)"/>
  <text x="200" y="418" text-anchor="middle" class="elabel">new token</text>

  <!-- Suspended → Active (straight up, right side) -->
  <line x1="420" y1="365" x2="420" y2="272" stroke="#50c050" stroke-width="1.5" stroke-dasharray="6,3" marker-end="url(#ag)"/>
  <text x="455" y="318" text-anchor="start" class="elabel">new channel</text>
  <text x="455" y="330" text-anchor="start" class="elabel">funded</text>

  <!-- ═══ Legend ═══ -->
  <line x1="200" y1="462" x2="230" y2="462" stroke="#c05050" stroke-width="2"/>
  <text x="238" y="466" class="elabel">blocked (no forwarding)</text>

  <line x1="410" y1="462" x2="440" y2="462" stroke="#50c050" stroke-width="2"/>
  <text x="448" y="466" class="elabel">allowed (forwarding active)</text>

  <line x1="200" y1="482" x2="230" y2="482" stroke="#50a0c0" stroke-width="2"/>
  <text x="238" y="486" class="elabel">bootstrap (token-metered)</text>

  <line x1="410" y1="482" x2="440" y2="482" stroke="#808080" stroke-width="1.5" stroke-dasharray="6,3"/>
  <text x="448" y="486" class="elabel">recovery / shortcut</text>

  <text x="400" y="510" text-anchor="middle" class="caption">Any state &#8594; None on disconnect</text>
</svg>
